<svg xmlns="http://www.w3.org/2000/svg" width="760" height="420" viewBox="0 0 760 420" font-family="Segoe UI, Arial, sans-serif"><rect width="760" height="420" fill="#ffffff"/><text x="70" y="42" font-size="16" font-weight="bold" fill="#1f2937">P1 检索质量：Dense vs Hybrid(RRF) vs Hybrid+RRF+Reranker（79 queries, kb-main）</text><line x1="70" y1="60.0" x2="730" y2="60.0" stroke="#e5e7eb"/><text x="62" y="64.0" font-size="11" text-anchor="end" fill="#6b7280">0.75</text><line x1="70" y1="118.0" x2="730" y2="118.0" stroke="#e5e7eb"/><text x="62" y="122.0" font-size="11" text-anchor="end" fill="#6b7280">0.6</text><line x1="70" y1="176.0" x2="730" y2="176.0" stroke="#e5e7eb"/><text x="62" y="180.0" font-size="11" text-anchor="end" fill="#6b7280">0.45</text><line x1="70" y1="234.0" x2="730" y2="234.0" stroke="#e5e7eb"/><text x="62" y="238.0" font-size="11" text-anchor="end" fill="#6b7280">0.3</text><line x1="70" y1="292.0" x2="730" y2="292.0" stroke="#e5e7eb"/><text x="62" y="296.0" font-size="11" text-anchor="end" fill="#6b7280">0.15</text><line x1="70" y1="350.0" x2="730" y2="350.0" stroke="#e5e7eb"/><text x="62" y="354.0" font-size="11" text-anchor="end" fill="#6b7280">0</text><text x="180.0" y="372" font-size="12" text-anchor="middle" fill="#1f2937">Dense</text><text x="400.0" y="372" font-size="12" text-anchor="middle" fill="#1f2937">Hybrid+RRF</text><text x="620.0" y="372" font-size="12" text-anchor="middle" fill="#1f2937">+Reranker</text><rect x="114.0" y="128.1" width="70.3" height="221.9" fill="#4f81bd"/><text x="149.7" y="123.1" font-size="11" text-anchor="middle" fill="#1f2937">0.574</text><rect x="334.0" y="128.1" width="70.3" height="221.9" fill="#4f81bd"/><text x="369.7" y="123.1" font-size="11" text-anchor="middle" fill="#1f2937">0.574</text><rect x="554.0" y="102.0" width="70.3" height="248.0" fill="#4f81bd"/><text x="589.7" y="97.0" font-size="11" text-anchor="middle" fill="#1f2937">0.641</text><rect x="187.3" y="186.9" width="70.3" height="163.1" fill="#9bbb59"/><text x="223.0" y="181.9" font-size="11" text-anchor="middle" fill="#1f2937">0.422</text><rect x="407.3" y="183.9" width="70.3" height="166.1" fill="#9bbb59"/><text x="443.0" y="178.9" font-size="11" text-anchor="middle" fill="#1f2937">0.429</text><rect x="627.3" y="153.0" width="70.3" height="197.0" fill="#9bbb59"/><text x="663.0" y="148.0" font-size="11" text-anchor="middle" fill="#1f2937">0.509</text><rect x="70" y="388" width="12" height="12" fill="#4f81bd"/><text x="88" y="398" font-size="12" fill="#1f2937">Recall@5</text><rect x="166.8" y="388" width="12" height="12" fill="#9bbb59"/><text x="184.8" y="398" font-size="12" fill="#1f2937">MRR@5</text></svg>