<svg xmlns="http://www.w3.org/2000/svg" width="760" height="420" viewBox="0 0 760 420" font-family="Segoe UI, Arial, sans-serif"><rect width="760" height="420" fill="#ffffff"/><text x="70" y="42" font-size="16" font-weight="bold" fill="#1f2937">P2 Chunk Size 消融（hybrid-RRF, 文档级/块级 Recall@5 与 MRR@5）</text><line x1="70" y1="60.0" x2="730" y2="60.0" stroke="#e5e7eb"/><text x="62" y="64.0" font-size="11" text-anchor="end" fill="#6b7280">1.05</text><line x1="70" y1="118.0" x2="730" y2="118.0" stroke="#e5e7eb"/><text x="62" y="122.0" font-size="11" text-anchor="end" fill="#6b7280">0.84</text><line x1="70" y1="176.0" x2="730" y2="176.0" stroke="#e5e7eb"/><text x="62" y="180.0" font-size="11" text-anchor="end" fill="#6b7280">0.63</text><line x1="70" y1="234.0" x2="730" y2="234.0" stroke="#e5e7eb"/><text x="62" y="238.0" font-size="11" text-anchor="end" fill="#6b7280">0.42</text><line x1="70" y1="292.0" x2="730" y2="292.0" stroke="#e5e7eb"/><text x="62" y="296.0" font-size="11" text-anchor="end" fill="#6b7280">0.21</text><line x1="70" y1="350.0" x2="730" y2="350.0" stroke="#e5e7eb"/><text x="62" y="354.0" font-size="11" text-anchor="end" fill="#6b7280">0</text><text x="400.0" y="408" font-size="12" text-anchor="middle" fill="#6b7280">chunk size (chars)</text><polyline points="70.0,94.8 195.7,87.8 337.1,84.3 533.6,91.3 730.0,87.8" fill="none" stroke="#4f81bd" stroke-width="2.5"/><circle cx="70.0" cy="94.8" r="3.5" fill="#4f81bd"/><text x="70.0" y="86.8" font-size="11" text-anchor="middle" fill="#1f2937">0.924</text><circle cx="195.7" cy="87.8" r="3.5" fill="#4f81bd"/><text x="195.7" y="79.8" font-size="11" text-anchor="middle" fill="#1f2937">0.949</text><circle cx="337.1" cy="84.3" r="3.5" fill="#4f81bd"/><text x="337.1" y="76.3" font-size="11" text-anchor="middle" fill="#1f2937">0.962</text><circle cx="533.6" cy="91.3" r="3.5" fill="#4f81bd"/><text x="533.6" y="83.3" font-size="11" text-anchor="middle" fill="#1f2937">0.937</text><circle cx="730.0" cy="87.8" r="3.5" fill="#4f81bd"/><text x="730.0" y="79.8" font-size="11" text-anchor="middle" fill="#1f2937">0.949</text><polyline points="70.0,126.9 195.7,121.9 337.1,112.0 533.6,107.6 730.0,107.5" fill="none" stroke="#9bbb59" stroke-width="2.5"/><circle cx="70.0" cy="126.9" r="3.5" fill="#9bbb59"/><text x="70.0" y="118.9" font-size="11" text-anchor="middle" fill="#1f2937">0.808</text><circle cx="195.7" cy="121.9" r="3.5" fill="#9bbb59"/><text x="195.7" y="113.9" font-size="11" text-anchor="middle" fill="#1f2937">0.826</text><circle cx="337.1" cy="112.0" r="3.5" fill="#9bbb59"/><text x="337.1" y="104.0" font-size="11" text-anchor="middle" fill="#1f2937">0.862</text><circle cx="533.6" cy="107.6" r="3.5" fill="#9bbb59"/><text x="533.6" y="99.6" font-size="11" text-anchor="middle" fill="#1f2937">0.878</text><circle cx="730.0" cy="107.5" r="3.5" fill="#9bbb59"/><text x="730.0" y="99.5" font-size="11" text-anchor="middle" fill="#1f2937">0.878</text><polyline points="70.0,338.5 195.7,326.2 337.1,310.5 533.6,289.7 730.0,273.1" fill="none" stroke="#c0504d" stroke-width="2.5"/><circle cx="70.0" cy="338.5" r="3.5" fill="#c0504d"/><text x="70.0" y="330.5" font-size="11" text-anchor="middle" fill="#1f2937">0.0416</text><circle cx="195.7" cy="326.2" r="3.5" fill="#c0504d"/><text x="195.7" y="318.2" font-size="11" text-anchor="middle" fill="#1f2937">0.086</text><circle cx="337.1" cy="310.5" r="3.5" fill="#c0504d"/><text x="337.1" y="302.5" font-size="11" text-anchor="middle" fill="#1f2937">0.143</text><circle cx="533.6" cy="289.7" r="3.5" fill="#c0504d"/><text x="533.6" y="281.7" font-size="11" text-anchor="middle" fill="#1f2937">0.218</text><circle cx="730.0" cy="273.1" r="3.5" fill="#c0504d"/><text x="730.0" y="265.1" font-size="11" text-anchor="middle" fill="#1f2937">0.279</text><rect x="70" y="388" width="12" height="12" fill="#4f81bd"/><text x="88" y="398" font-size="12" fill="#1f2937">Recall@5 (doc)</text><rect x="206.39999999999998" y="388" width="12" height="12" fill="#9bbb59"/><text x="224.39999999999998" y="398" font-size="12" fill="#1f2937">MRR@5 (doc)</text><rect x="323.0" y="388" width="12" height="12" fill="#c0504d"/><text x="341.0" y="398" font-size="12" fill="#1f2937">Recall@5 (chunk)</text></svg>